<svg width="630" height="698" viewBox="0 0 630 698" fill="none" xmlns="http://www.w3.org/2000/svg">
<path d="M120 0.5C119 26.3333 126.145 69.3968 142 82C161.5 97.5 195 149.667 209 181.5C218.667 226.167 241.6 315.5 256 315.5C270.4 315.5 299.138 387.092 328.5 403.5C362.5 422.5 305.3 406.8 286.5 388C263 364.5 147 346 178 324.5C202.8 307.3 117 222 71 181.5C36.8333 173.167 -1.00003 161.169 -1 127.5V0.5H120Z" fill="white" fill-opacity="0.2"/>
<path d="M-1 240C40.1667 263.167 116 314.7 90 335.5C64 356.3 139.833 422.167 181 452.5C288.667 524.833 513.1 664.3 549.5 643.5C585.9 622.7 618.333 666.5 630 691C627.833 706.333 597.6 692.3 568 683.5C531 672.5 476 635 458.5 663C441 691 287 563 254.5 613C222 663 61.5 522 59.5 546C57.9 565.2 18.5 542.333 -1 528.5V240Z" fill="white" fill-opacity="0.2"/>
</svg>
