<svg width="606" height="736" viewBox="0 0 606 736" fill="none" xmlns="http://www.w3.org/2000/svg">
<path d="M459.673 4.5C453.198 23.242 449.61 56.5459 441.673 67C430.08 82.2691 414.421 126.153 427.775 125.5C468.672 123.5 424.698 188.043 414.672 185.5C404.647 182.957 401.8 226.517 386.718 229.989C367.084 234.51 378.673 269.5 364.172 281.5C359.673 287.5 336.023 351 346.775 351C360.561 351 380.744 301.354 399.275 281.5C420.275 259 414.672 275.5 427.775 264.5C463.853 234.211 463.993 225.068 471.673 199C482.743 161.422 515.174 166.417 530.421 154.551C545.669 142.684 546.672 107.5 559.741 137C565.348 149.657 585.395 127.525 587.652 116.407C590.576 101.998 596.424 70.9181 606.241 70.9181V0L459.673 4.5Z" fill="white" fill-opacity="0.2"/>
<path d="M606.082 181C535.978 291.5 487.575 320.368 479 345.5C450 430.5 387.646 508 369.479 532.5C320.812 571 191.778 651.8 168.978 653C140.478 654.5 68.2248 683.191 52.9783 689.5C23.9789 701.5 -20.9175 721 10.9789 727C69.4787 723 52.9783 739.934 69.4787 734C126.479 713.5 155.343 689.5 200.343 682.5C236.343 676.9 286.75 642.167 347.084 628L449.479 555.5C459.225 555.5 514.483 555.5 522.083 521.5C531.583 479 606.082 492 606.082 487V181Z" fill="white" fill-opacity="0.2"/>
</svg>
